<?xml version="1.0" encoding="iso-8859-1"?>
<!-- Generator: Adobe Illustrator 19.0.0, SVG Export Plug-In . SVG Version: 6.00 Build 0)  -->
<svg xmlns="http://www.w3.org/2000/svg" xmlns:xlink="http://www.w3.org/1999/xlink" version="1.1" id="Layer_1" x="0px" y="0px" viewBox="0 0 512 512" style="enable-background:new 0 0 512 512;" xml:space="preserve" width="512" height="512">
<path d="M452,20H60C26.916,20,0,46.916,0,80v332c0,44.112,35.888,80,80,80h352c44.112,0,80-35.888,80-80c0-11.046-8.954-20-20-20  s-20,8.954-20,20c0,22.056-17.944,40-40,40H80c-22.056,0-40-17.944-40-40V141h432v171c0,11.046,8.954,20,20,20s20-8.954,20-20V80  C512,46.916,485.084,20,452,20z M371,60c11.028,0,20,8.972,20,20s-8.972,20-20,20s-20-8.972-20-20S359.972,60,371,60z M471,80  c0,11.028-8.972,20-20,20s-20-8.972-20-20s8.972-20,20-20S471,68.972,471,80z M40,80c0-11.028,8.972-20,20-20h254.44  c-2.22,6.26-3.44,12.989-3.44,20c0,7.386,1.349,14.46,3.801,21H40V80z M275,400c0,11.046-8.954,20-20,20l0,0  c-11.046,0-20-8.954-20-20s8.954-20,20-20l0,0C266.046,380,275,388.954,275,400z M275.993,336c0,11.046-8.954,20-20,20  s-20-8.954-20-20v-1.287c0-22.531,13.239-42.741,33.729-51.488c12.753-5.445,21.053-17.826,21.273-31.653  c-0.005-0.192-0.008-0.385-0.008-0.578c0-19.295-15.698-34.994-34.994-34.994C236.698,216,221,231.698,221,250.994  c0,11.045-8.954,20-20,20s-20-8.955-20-20C181,209.642,214.642,176,255.993,176c41.071,0,74.538,33.187,74.989,74.153  c0.012,0.278,0.018,0.556,0.018,0.836c0.007,30.108-17.882,57.201-45.573,69.022c-5.73,2.447-9.434,8.218-9.434,14.701V336z"/>















</svg>
